<svg width="200" height="200" viewBox="0 0 200 200" fill="none" xmlns="http://www.w3.org/2000/svg">
<path d="M120.654 139.752C116.718 122.558 124.622 102.194 138.31 94.27C138.968 93.89 139.626 93.544 140.286 93.234C136.592 90.04 132.458 86.516 130.268 84.824C128.916 83.778 127.332 82.368 125.612 80.84C123.844 78.388 113.476 64.448 102.93 59.716C91.5601 54.618 78.3301 56.04 71.2001 52.528C67.0721 50.494 62.6921 48.802 53.9661 51.23C45.8201 53.496 39.0821 60.702 36.0361 66.844C28.2461 82.568 38.1941 91.34 38.1941 91.34C38.1941 91.34 39.0501 92.892 40.4261 95.332C41.4021 94.704 42.5521 94.39 43.8441 94.512C45.4901 94.668 47.1361 95.442 48.4581 96.434C49.6041 96.614 51.1141 97.768 52.3081 99.502C53.5901 101.364 54.1061 103.314 53.7241 104.42C55.1641 104.558 57.5161 106.724 59.4621 109.866C61.0021 112.352 61.8901 114.796 61.9381 116.378C63.5321 116.972 65.7501 119.228 67.5921 122.302C69.1581 124.916 70.0481 127.464 70.1401 129.204C71.9141 129.932 74.1181 132.07 75.9021 135.04C78.4961 139.362 79.1921 143.71 77.4541 144.756C77.3501 144.818 77.2221 144.828 77.1061 144.862C79.6681 146.704 82.3741 148.198 85.1841 149.06C87.4681 149.762 90.7421 147.998 90.7421 147.998C90.7421 147.998 94.7941 150.184 97.7861 149.832C100.86 149.468 102.924 147.998 102.924 147.998C102.924 147.998 106.978 149.574 109.51 149.06C112.002 148.554 114.344 146.086 114.344 146.086C114.344 146.086 118.542 148.158 120.93 147.042C121.424 146.812 122.05 146.394 122.688 145.928C121.852 144.036 121.158 141.98 120.648 139.75L120.654 139.752Z" fill="#FFF4E3"/>
<path d="M56.9241 116.248C55.3921 116.038 54.2081 116.506 53.4261 117.666C52.4481 119.112 52.0461 122.498 52.4441 125.902C52.8221 129.164 56.2861 132.35 59.0861 133.59C59.0601 131.72 59.3641 130.296 60.0201 129.322C60.8101 128.152 61.9281 127.45 63.2281 127.158C63.1421 124.678 62.7081 122.022 61.9761 119.736C61.5441 118.394 59.2421 116.578 56.9241 116.248Z" fill="#FFF4E3"/>
<path d="M49.7395 105.276C48.3855 105.148 47.3375 105.626 46.6115 106.702C45.6355 108.146 45.2335 111.534 45.6295 114.94C46.0575 118.604 48.3555 122.318 50.2995 123.598C50.2695 121.034 50.6335 118.228 51.7695 116.548C52.7715 115.064 54.2835 114.298 56.0655 114.246C56.1135 112.218 55.8275 110.33 55.1955 108.864C54.5595 107.382 52.0375 105.494 49.7395 105.276ZM70.2295 132.516C69.7975 131.174 67.4975 129.356 65.1795 129.026C63.6375 128.806 62.4615 129.284 61.6775 130.442C61.0995 131.3 60.6375 133.384 61.7195 138.44C62.6035 142.56 69.2715 142.286 71.5375 141.864C72.1875 141.742 72.3275 141.504 72.3735 141.426C72.8955 140.54 72.0235 137.924 71.0135 134.894C70.7655 134.148 70.4995 133.354 70.2295 132.512V132.516ZM74.0735 142.472C74.9555 143.226 75.8575 143.946 76.7795 144.622C75.8595 143.942 74.9635 143.214 74.0875 142.458C74.0835 142.464 74.0775 142.466 74.0735 142.472Z" fill="#FFF4E3"/>
<path d="M43.6583 96.5042C42.3063 96.3722 41.2523 96.8562 40.5263 97.9302C39.5523 99.3742 39.1483 102.762 39.5443 106.168C39.9643 109.774 41.8343 112.632 43.5143 113.45C43.3923 110.682 43.6983 107.444 44.9543 105.584C46.0403 103.976 47.7143 103.176 49.6823 103.292C49.7023 102.11 49.5183 101.034 49.1123 100.09C48.4763 98.6102 45.9543 96.7222 43.6583 96.5042Z" fill="#FFF4E3"/>
<path d="M38.868 96.8101C39.296 96.1781 39.838 95.7101 40.428 95.3321C39.052 92.8901 38.196 91.3401 38.196 91.3401C38.196 91.3401 28.248 82.5681 36.038 66.8441C39.082 60.7021 45.822 53.4961 53.968 51.2301C62.694 48.8021 67.074 50.4941 71.202 52.5281C74.052 53.9321 77.882 54.5461 82.172 55.1041C82.146 54.7641 82.146 54.4121 82.1 54.0781C81.658 50.7881 80.37 48.1821 78.454 46.2641L78.466 46.2461C72.502 40.2821 71.286 39.0781 65.32 33.1141C59.862 27.6561 49.19 27.9141 37.654 34.7501C22.066 43.9861 10.81 61.7341 12.512 74.3881C12.954 77.6721 14.22 80.2881 16.13 82.2041C22.088 88.1761 29.278 95.3681 29.29 95.3701C31.44 97.5141 34.426 98.7221 37.922 99.0461C38.15 98.1961 38.454 97.4261 38.868 96.8101Z" fill="#FAD5A8"/>
<path d="M38.2279 128.297L28.083 131.73L28.7882 133.814L38.9331 130.381L38.2279 128.297Z" fill="#B56E00"/>
<path d="M51.9404 150.687L46.2939 160.854L48.2172 161.922L53.8637 151.755L51.9404 150.687Z" fill="#B56E00"/>
<path d="M69.8556 166.725L69.8164 181.609L72.0164 181.615L72.0556 166.731L69.8556 166.725Z" fill="#B56E00"/>
<path d="M90.2249 172.465L88.1387 173.163L93.7112 189.807L95.7974 189.109L90.2249 172.465Z" fill="#B56E00"/>
<path d="M97.5832 18.3871L97.5439 33.271L99.7439 33.2768L99.7832 18.3929L97.5832 18.3871Z" fill="#B56E00"/>
<path d="M75.8879 10.1929L73.8018 10.8916L79.3757 27.535L81.4619 26.8364L75.8879 10.1929Z" fill="#B56E00"/>
<path d="M140.81 66.1889L130.667 69.6206L131.372 71.7046L141.515 68.2729L140.81 66.1889Z" fill="#B56E00"/>
<path d="M121.381 38.0808L115.736 48.2471L117.66 49.315L123.304 39.1487L121.381 38.0808Z" fill="#B56E00"/>
<path d="M109.786 142.41C106.586 138.858 98.0917 124.434 98.0057 124.288L96.2817 125.3C96.6357 125.902 104.964 140.046 108.3 143.75C109.404 144.974 111.344 146.422 112.798 147.436C113.732 146.736 114.352 146.088 114.352 146.088C114.352 146.088 114.388 146.104 114.396 146.108C113.002 145.154 110.876 143.616 109.788 142.408L109.786 142.41ZM99.4137 145.452C95.9597 142.704 88.0657 130.15 87.9857 130.022L86.2917 131.084C86.6237 131.614 94.4497 144.056 98.1697 147.018C99.0737 147.736 100.066 148.452 100.904 149.036C102.166 148.536 102.922 148.006 102.93 148C102.02 147.384 100.612 146.404 99.4137 145.452ZM90.8177 148.036C90.5817 147.896 90.3137 147.722 89.9777 147.466C87.1277 145.294 80.7717 135.972 80.7077 135.878L79.0537 137.002C79.3157 137.388 85.3717 146.264 88.5457 148.87C89.7837 148.508 90.7477 148 90.7477 148C90.7477 148 90.7997 148.026 90.8177 148.036Z" fill="#B56E00"/>
<path d="M66.3761 85.344C67.0501 84.598 68.2121 83.288 68.5321 81.892C68.7841 80.8 68.5121 80.23 68.1861 79.708C68.1581 79.726 68.1362 79.752 68.1062 79.768L57.4521 85.096C57.6221 85.832 57.9941 87.07 58.7001 88.328C59.1921 88.728 59.7181 89.032 60.2501 89.126C61.8981 89.418 65.1521 86.7 66.3761 85.344Z" fill="#FAD5A8"/>
<path d="M38.8681 96.8099C39.2961 96.1779 39.8381 95.7099 40.4281 95.3319C39.0521 92.8899 38.1961 91.3399 38.1961 91.3399C38.1961 91.3399 28.2481 82.5679 36.0381 66.8439C39.0821 60.7019 45.8221 53.4959 53.9681 51.2299C62.6941 48.8019 67.0741 50.4939 71.2021 52.5279C74.0521 53.9319 77.8821 54.5459 82.1721 55.1039C82.1461 54.7639 82.1461 54.4119 82.1001 54.0779C80.3981 41.4139 66.3781 38.6419 50.7841 47.8839C35.1901 57.1259 23.9261 74.8819 25.6281 87.5439C26.5661 94.5279 31.2901 98.4399 37.9221 99.0479C38.1501 98.1979 38.4541 97.4239 38.8681 96.8099Z" fill="#D69048"/>
<path d="M75.906 135.042C74.12 132.072 71.916 129.934 70.144 129.206C70.052 127.464 69.162 124.918 67.596 122.304C65.756 119.23 63.536 116.974 61.942 116.38C61.894 114.798 61.006 112.354 59.466 109.868C57.52 106.726 55.168 104.558 53.728 104.422C54.11 103.318 53.594 101.366 52.312 99.504C51.118 97.768 49.608 96.614 48.462 96.436C47.14 95.446 45.496 94.67 43.848 94.514C41.774 94.318 40.006 95.134 38.87 96.812C37.342 99.076 37.208 103.39 37.56 106.4C38.116 111.166 40.816 115.052 43.712 115.608C44.358 119.852 47.288 124.878 50.438 125.9C50.446 125.978 50.45 126.062 50.46 126.138C50.986 130.67 55.77 134.664 59.242 135.802C59.358 136.738 59.528 137.754 59.766 138.866C60.676 143.11 65.314 144.094 68.848 144.094C70.062 144.094 71.146 143.978 71.904 143.838C72.922 143.648 73.656 143.184 74.088 142.464C75.068 143.31 76.066 144.128 77.1 144.872C77.22 144.834 77.352 144.826 77.458 144.762C79.196 143.716 78.5 139.368 75.906 135.046V135.042ZM43.514 113.45C41.834 112.63 39.962 109.774 39.544 106.168C39.148 102.762 39.55 99.376 40.526 97.93C41.254 96.854 42.306 96.372 43.658 96.504C45.954 96.72 48.476 98.61 49.112 100.09C49.516 101.034 49.702 102.11 49.682 103.292C47.716 103.178 46.042 103.976 44.954 105.584C43.698 107.444 43.392 110.682 43.514 113.45ZM50.3 123.598C48.356 122.318 46.058 118.604 45.63 114.94C45.234 111.534 45.636 108.148 46.612 106.702C47.338 105.626 48.388 105.148 49.74 105.276C52.036 105.492 54.558 107.382 55.196 108.864C55.826 110.33 56.114 112.22 56.066 114.246C54.284 114.298 52.772 115.064 51.77 116.548C50.634 118.228 50.27 121.034 50.3 123.598ZM60.02 129.324C59.364 130.298 59.06 131.722 59.086 133.592C56.286 132.352 52.822 129.166 52.444 125.904C52.046 122.5 52.448 119.114 53.426 117.668C54.21 116.508 55.392 116.04 56.924 116.25C59.242 116.58 61.544 118.396 61.976 119.74C62.71 122.026 63.144 124.68 63.228 127.162C61.926 127.454 60.81 128.154 60.02 129.324ZM72.374 141.428C72.328 141.506 72.188 141.744 71.538 141.866C69.272 142.288 62.604 142.564 61.72 138.442C60.638 133.384 61.1 131.302 61.678 130.444C62.464 129.286 63.64 128.806 65.18 129.028C67.498 129.358 69.8 131.176 70.23 132.518C70.5 133.358 70.766 134.152 71.014 134.9C72.024 137.93 72.896 140.546 72.374 141.432V141.428Z" fill="#B56E00"/>
<path d="M186.65 115.096C184.226 104.506 177.874 97.5879 170.158 95.6859C163.916 94.1499 153.71 91.6579 153.708 91.6579C148.898 90.4759 143.562 91.2239 138.31 94.2659C124.622 102.19 116.718 122.554 120.654 139.748C123.076 150.332 129.428 157.23 137.14 159.134C137.142 159.134 147.338 161.664 153.58 163.2C158.394 164.384 163.738 163.618 168.994 160.576C182.682 152.652 190.586 132.29 186.65 115.096Z" fill="#FAD5A8"/>
<path d="M119.684 131.516C115.506 128.76 111.04 125.416 109.138 122.644C101.634 111.704 100.682 90.102 100.672 89.882C100.65 89.346 100.21 88.922 99.6743 88.922H99.6663C99.6003 88.922 93.2583 88.97 90.3143 88.574C85.8023 87.974 82.1503 85.89 82.1123 85.868C81.8543 85.722 81.5563 85.668 81.2763 85.77C80.9983 85.874 80.7883 86.068 80.6903 86.348C80.6783 86.374 79.4463 88.778 70.8843 91.664C67.0283 92.958 63.8823 92.876 61.5303 91.408C58.7903 89.698 57.7763 86.492 57.4523 85.094L68.1063 79.766C68.2043 79.716 68.2943 79.652 68.3703 79.572C70.2743 77.642 75.7263 72.464 78.0603 71.712C79.6503 71.202 88.1883 71.648 92.2963 71.866C93.7923 71.944 95.0003 72.008 95.6603 72.024C96.5663 72.048 98.2003 71.936 100.1 71.81C103.094 71.608 106.818 71.358 109.242 71.512C113.47 71.776 119.674 75.898 124.82 79.764C123.856 78.474 122.274 76.442 120.242 74.1C116.402 71.636 112.524 69.714 109.366 69.516C106.814 69.364 103.016 69.61 99.9643 69.814C98.1123 69.936 96.5223 70.064 95.7063 70.024C95.0563 70.008 93.8683 69.946 92.3983 69.868C85.5383 69.506 79.2343 69.232 77.4423 69.81C74.3563 70.804 68.2023 76.9 67.0603 78.05L55.8763 83.642C55.4983 83.832 55.2783 84.24 55.3323 84.662C55.3623 84.892 56.0943 90.36 60.4503 93.094C60.9483 93.408 61.4803 93.652 62.0283 93.868C64.3983 94.904 68.4063 95.47 72.9203 95.254C77.4883 95.034 81.4583 94.062 83.7043 92.782C86.9183 93.48 90.8643 94.02 95.1603 94.284C96.4843 94.366 97.7463 94.392 99.0003 94.414C99.6843 101.5 101.714 115.362 107.486 123.776C109.76 127.092 115.154 131.002 119.798 133.988C119.732 133.166 119.702 132.342 119.684 131.516Z" fill="#B56E00"/>
<path d="M186.65 115.096C182.714 97.9022 168.43 90.3882 154.742 98.3122C141.056 106.236 133.152 126.6 137.088 143.794C141.024 160.99 155.308 168.504 168.994 160.578C182.682 152.654 190.586 132.29 186.65 115.096Z" fill="#D69048"/>
</svg>
