<svg width="161" height="161" viewBox="0 0 161 161" fill="none" xmlns="http://www.w3.org/2000/svg">
<g clip-path="url(#clip0_278_3797)">
<path d="M106.776 161.019H33.0431C26.6094 161.019 21.3926 155.802 21.3926 149.368V11.6314C21.3926 5.19774 26.6094 -0.019043 33.0431 -0.019043H106.776C113.21 -0.019043 118.427 5.19774 118.427 11.6314V149.368C118.427 155.802 113.213 161.019 106.776 161.019Z" fill="#373E49"/>
<path d="M89.2005 5.79541C89.2005 8.9934 86.6063 11.5876 83.4083 11.5876H56.4125C53.2145 11.5876 50.6203 8.9934 50.6203 5.79541H31.5392C28.5551 5.79541 26.1338 8.2167 26.1338 11.2009V150.67C26.1338 153.654 28.5551 156.076 31.5392 156.076H108.285C111.269 156.076 113.69 153.654 113.69 150.67V11.204C113.69 8.21984 111.269 5.79855 108.285 5.79855H89.2005V5.79541Z" fill="white"/>
<path d="M123.196 144.064C138.788 144.064 151.428 131.424 151.428 115.832C151.428 100.24 138.788 87.6003 123.196 87.6003C107.605 87.6003 94.9648 100.24 94.9648 115.832C94.9648 131.424 107.605 144.064 123.196 144.064Z" fill="url(#paint0_linear_278_3797)"/>
<path d="M125.353 124.671L118.599 131.426L118.577 131.397L118.549 131.426L111.797 124.671L111.822 124.646L102.087 114.911L108.841 108.156L118.577 117.892L136.108 100.354L142.865 107.112L125.328 124.646L125.353 124.671Z" fill="white"/>
<path d="M94.8834 57.7055C94.8834 58.6803 94.4904 59.5607 93.852 60.1991C93.2137 60.8374 92.3332 61.2305 91.3584 61.2305H50.5738C48.6274 61.2305 47.0488 59.6519 47.0488 57.7055C47.0488 57.1835 47.162 56.6898 47.3633 56.2464C47.5394 55.8596 47.7815 55.5106 48.0802 55.215C48.7186 54.5767 49.599 54.1836 50.5738 54.1836H91.3553C92.7797 54.1836 94.0093 55.0295 94.5658 56.2464C94.7702 56.6898 94.8834 57.1835 94.8834 57.7055Z" fill="#884D00"/>
<path d="M97.9146 64.0763C97.9146 68.617 95.8109 71.9911 92.4148 74.23C89.0156 76.4689 84.3177 77.5726 79.1323 77.5726H62.8059C52.4321 77.5726 44.0205 73.1577 44.0205 64.0763C44.0205 63.57 44.1463 63.0889 44.3758 62.6581C44.5677 62.2902 44.8349 61.9569 45.1588 61.6738C45.8601 61.0607 46.8317 60.6802 47.9009 60.6802H94.0406C95.6034 60.6802 96.9524 61.4915 97.5656 62.6581C97.7888 63.0889 97.9146 63.57 97.9146 64.0763Z" fill="#EF9D43"/>
<path d="M96.8896 53.9728C96.8896 54.4507 96.811 54.9381 96.6412 55.4161C95.9714 57.2839 94.179 58.0103 92.7829 56.9789L91.1068 55.7431C89.9371 54.8784 88.4465 55.2337 87.6007 56.5764L87.5283 56.6896C86.7171 57.9789 85.302 58.3625 84.1448 57.6078L80.3934 55.1551C79.5287 54.5891 78.491 54.652 77.6702 55.3186L74.6641 57.7651C73.7993 58.4663 72.7019 58.4977 71.8151 57.8405L68.3844 55.2997C67.5071 54.6488 66.4222 54.6708 65.5606 55.3532L62.4381 57.8342C61.5985 58.4977 60.5451 58.5386 59.6804 57.9349L55.6365 55.1268C54.8409 54.5734 53.8819 54.5608 53.0769 55.0859L49.3066 57.5449C46.7941 57.8688 45.574 56.023 45.574 56.023C44.9734 54.979 44.9137 53.7401 45.2375 52.6992C45.6243 51.4571 46.5614 50.498 47.7783 50.498H94.1539C95.3488 50.498 96.3016 51.4414 96.6946 52.6929C96.8236 53.0954 96.8896 53.5294 96.8896 53.9728Z" fill="#35A83F"/>
<path d="M91.1855 52.6078H50.7468C49.1242 52.6078 47.8066 51.2934 47.8066 49.6677C47.8066 48.0451 49.1211 46.7275 50.7468 46.7275H91.1855C92.808 46.7275 94.1256 48.042 94.1256 49.6677C94.1256 51.2934 92.808 52.6078 91.1855 52.6078Z" fill="#D84200"/>
<path d="M97.9148 44.7152C97.9148 44.7718 97.9117 44.8315 97.9086 44.8881C97.8645 45.6239 97.5501 46.2874 97.0627 46.7748C96.5344 47.3031 95.808 47.627 95.003 47.627H46.9294C45.3226 47.627 44.0176 46.322 44.0176 44.7152C44.0176 41.2279 45.6339 38.599 48.0772 36.6243C50.0582 35.0206 52.5864 33.8445 55.231 32.9829C62.6301 30.5742 70.9662 30.6182 70.9662 30.6182C70.9662 30.6182 97.9148 30.4736 97.9148 44.7152Z" fill="#EF9D43"/>
<path d="M85.4494 35.7124C85.9179 36.2061 85.8959 36.9859 85.3991 37.4545C84.9054 37.923 84.1256 37.901 83.657 37.4042C83.1885 36.9105 82.33 35.1967 82.8237 34.7282C83.3206 34.2628 84.984 35.2156 85.4494 35.7124ZM78.9214 41.8002C79.1666 42.4354 78.849 43.1492 78.2138 43.3914C77.5786 43.6366 76.8648 43.319 76.6227 42.6838C76.3774 42.0486 76.2359 40.1368 76.8711 39.8915C77.5032 39.6494 78.6761 41.165 78.9214 41.8002ZM72.1984 36.7344C72.1984 37.4136 71.6481 37.967 70.9657 37.967C70.2865 37.967 69.733 37.4167 69.733 36.7344C69.733 36.0552 70.2833 34.2188 70.9657 34.2188C71.6481 34.2156 72.1984 36.052 72.1984 36.7344ZM65.425 42.5706C65.2552 43.2278 64.5823 43.624 63.9251 43.4542C63.2679 43.2844 62.8717 42.6115 63.0415 41.9543C63.2113 41.2971 64.205 39.6556 64.8622 39.8255C65.5194 39.9984 65.5948 41.9134 65.425 42.5706ZM58.6486 37.2061C58.353 37.8192 57.614 38.0739 57.004 37.7784C56.3908 37.4828 56.1361 36.7438 56.4317 36.1338C56.7273 35.5206 58.026 34.1087 58.636 34.4074C59.2492 34.6999 58.9442 36.5929 58.6486 37.2061Z" fill="#FFF5CC"/>
<path d="M93.7383 85.6445H50.6582V90.7072H93.7383V85.6445Z" fill="#373E49"/>
<path d="M93.7383 95.4177H50.6582V100.48H93.7383V95.4177Z" fill="#373E49"/>
</g>
<defs>
<linearGradient id="paint0_linear_278_3797" x1="94.9655" y1="115.832" x2="151.426" y2="115.832" gradientUnits="userSpaceOnUse">
<stop stop-color="#12D87E"/>
<stop offset="0.156" stop-color="#0FC971"/>
<stop offset="0.481" stop-color="#0AAF5C"/>
<stop offset="0.773" stop-color="#079F4F"/>
<stop offset="1" stop-color="#06994A"/>
</linearGradient>
<clipPath id="clip0_278_3797">
<rect width="161" height="161" fill="white"/>
</clipPath>
</defs>
</svg>
